<?xml version="1.0" standalone="no"?>
<!DOCTYPE svg PUBLIC "-//W3C//DTD SVG 20010904//EN"
 "http://www.w3.org/TR/2001/REC-SVG-20010904/DTD/svg10.dtd">
<svg version="1.0" xmlns="http://www.w3.org/2000/svg"
 width="50.000000pt" height="28.000000pt" viewBox="0 0 50.000000 28.000000"
 preserveAspectRatio="xMidYMid meet">

<g transform="translate(0.000000,28.000000) scale(0.100000,-0.100000)"
fill="#000000" stroke="none">
<path d="M205 239 l-48 -30 20 -21 21 -20 21 21 c26 26 52 27 81 3 29 -23 30
-70 2 -93 -21 -16 -21 -17 -3 -33 15 -14 23 -15 45 -5 24 11 26 17 26 80 l0
68 -54 30 c-29 17 -55 31 -58 31 -2 0 -26 -14 -53 -31z"/>
<path d="M141 76 c-16 -19 -11 -46 11 -60 22 -13 60 19 56 48 -4 26 -49 34
-67 12z"/>
</g>
</svg>
